<svg width="40" height="40" viewBox="0 0 40 40" fill="none" xmlns="http://www.w3.org/2000/svg">
<g filter="url(#filter0_d_934_29)">
<path d="M13 3H27C30.3137 3 33 5.68629 33 9V22C33 25.866 29.866 29 26 29H7V9C7 5.68629 9.68629 3 13 3Z" fill="#E6FAFF" stroke="black" stroke-width="2"/>
<path d="M16 28C16 23.5817 12.4183 20 8 20V28H16Z" fill="black"/>
<ellipse cx="25" cy="10.5" rx="9" ry="8.5" fill="#19809C"/>
<path d="M14.5 9C17.7635 9 21 7.06825 21 4H8C8 7.06825 11.2365 9 14.5 9Z" fill="#19809C"/>
<path d="M27 21C27 17.9875 28.9318 15 32 15V27C28.9318 27 27 24.0125 27 21Z" fill="#19809C"/>
<path d="M13 3H27C30.3137 3 33 5.68629 33 9V22C33 25.866 29.866 29 26 29H7V9C7 5.68629 9.68629 3 13 3Z" stroke="black" stroke-width="2"/>
<path d="M16.4 8.5L23.4 3" stroke="url(#paint0_linear_934_29)" stroke-width="0.5" stroke-linecap="round" stroke-linejoin="bevel"/>
<path d="M27.5 18.5L33.5 13.5" stroke="url(#paint1_linear_934_29)" stroke-width="0.5" stroke-linecap="round" stroke-linejoin="bevel"/>
</g>
<defs>
<filter id="filter0_d_934_29" x="0" y="0" width="40" height="40" filterUnits="userSpaceOnUse" color-interpolation-filters="sRGB">
<feFlood flood-opacity="0" result="BackgroundImageFix"/>
<feColorMatrix in="SourceAlpha" type="matrix" values="0 0 0 0 0 0 0 0 0 0 0 0 0 0 0 0 0 0 127 0" result="hardAlpha"/>
<feOffset dy="4"/>
<feGaussianBlur stdDeviation="3"/>
<feComposite in2="hardAlpha" operator="out"/>
<feColorMatrix type="matrix" values="0 0 0 0 0 0 0 0 0 0 0 0 0 0 0 0 0 0 0.1 0"/>
<feBlend mode="normal" in2="BackgroundImageFix" result="effect1_dropShadow_934_29"/>
<feBlend mode="normal" in="SourceGraphic" in2="effect1_dropShadow_934_29" result="shape"/>
</filter>
<linearGradient id="paint0_linear_934_29" x1="22" y1="4" x2="24" y2="2.5" gradientUnits="userSpaceOnUse">
<stop stop-color="#033745"/>
<stop offset="1" stop-opacity="0"/>
</linearGradient>
<linearGradient id="paint1_linear_934_29" x1="31" y1="15" x2="33.5" y2="13.5" gradientUnits="userSpaceOnUse">
<stop stop-color="#033745"/>
<stop offset="1" stop-opacity="0"/>
</linearGradient>
</defs>
</svg>
